<mxfile host="app.diagrams.net" agent="Mozilla/5.0 (X11; Linux x86_64) AppleWebKit/537.36 (KHTML, like Gecko) Chrome/130.0.0.0 Safari/537.36" version="24.8.6">
  <diagram name="PÃ¡gina-1" id="xfp4CT7QemaBQYsnA7hu">
    <mxGraphModel dx="989" dy="566" grid="1" gridSize="10" guides="1" tooltips="1" connect="1" arrows="1" fold="1" page="1" pageScale="1" pageWidth="827" pageHeight="1169" math="0" shadow="0">
      <root>
        <mxCell id="0" />
        <mxCell id="1" parent="0" />
        <mxCell id="7Lh0Hz3y1n6FYCdU4KUs-1" value="&lt;b&gt;service-gateway-1&lt;/b&gt;" style="rounded=1;whiteSpace=wrap;html=1;fillColor=#f5f5f5;fontColor=#333333;strokeColor=#666666;" parent="1" vertex="1">
          <mxGeometry x="200" y="440" width="120" height="40" as="geometry" />
        </mxCell>
        <mxCell id="7Lh0Hz3y1n6FYCdU4KUs-6" value="&lt;b style=&quot;color: rgb(51, 51, 51);&quot;&gt;products&lt;/b&gt;" style="rounded=1;whiteSpace=wrap;html=1;" parent="1" vertex="1">
          <mxGeometry x="200" y="490" width="120" height="40" as="geometry" />
        </mxCell>
        <mxCell id="7Lh0Hz3y1n6FYCdU4KUs-12" value="&lt;b&gt;book&lt;/b&gt;" style="rounded=1;whiteSpace=wrap;html=1;" parent="1" vertex="1">
          <mxGeometry x="200" y="540" width="120" height="40" as="geometry" />
        </mxCell>
        <mxCell id="UXk84HxrRsTx9ExRWkyZ-57" style="edgeStyle=orthogonalEdgeStyle;rounded=0;orthogonalLoop=1;jettySize=auto;html=1;exitX=0.5;exitY=0;exitDx=0;exitDy=0;" edge="1" parent="1" source="Pc9nc3XvUyFygKjKH21S-1">
          <mxGeometry relative="1" as="geometry">
            <mxPoint x="259.9655172413793" y="250" as="targetPoint" />
          </mxGeometry>
        </mxCell>
        <mxCell id="Pc9nc3XvUyFygKjKH21S-1" value="&lt;b&gt;service-state-1&lt;/b&gt;" style="rounded=1;whiteSpace=wrap;html=1;fillColor=#f5f5f5;fontColor=#333333;strokeColor=#666666;" parent="1" vertex="1">
          <mxGeometry x="200" y="280" width="120" height="40" as="geometry" />
        </mxCell>
        <mxCell id="Pc9nc3XvUyFygKjKH21S-4" value="&lt;b&gt;orders&lt;/b&gt;" style="rounded=1;whiteSpace=wrap;html=1;" parent="1" vertex="1">
          <mxGeometry x="200" y="330" width="120" height="40" as="geometry" />
        </mxCell>
        <mxCell id="UXk84HxrRsTx9ExRWkyZ-10" value="Provider-1" style="swimlane;whiteSpace=wrap;html=1;rounded=1;dashed=1;dashPattern=1 1;" vertex="1" parent="1">
          <mxGeometry x="190" y="100" width="140" height="140" as="geometry" />
        </mxCell>
        <mxCell id="UXk84HxrRsTx9ExRWkyZ-5" style="edgeStyle=orthogonalEdgeStyle;rounded=0;orthogonalLoop=1;jettySize=auto;html=1;exitX=0.25;exitY=0;exitDx=0;exitDy=0;entryX=0.25;entryY=1;entryDx=0;entryDy=0;dashed=1;dashPattern=1 1;" edge="1" parent="UXk84HxrRsTx9ExRWkyZ-10" source="UXk84HxrRsTx9ExRWkyZ-2" target="UXk84HxrRsTx9ExRWkyZ-3">
          <mxGeometry relative="1" as="geometry" />
        </mxCell>
        <mxCell id="UXk84HxrRsTx9ExRWkyZ-2" value="&lt;b&gt;blockchain-indexer&lt;/b&gt;" style="rounded=1;whiteSpace=wrap;html=1;fillColor=#f5f5f5;fontColor=#333333;strokeColor=#666666;" vertex="1" parent="UXk84HxrRsTx9ExRWkyZ-10">
          <mxGeometry x="10" y="90" width="120" height="40" as="geometry" />
        </mxCell>
        <mxCell id="UXk84HxrRsTx9ExRWkyZ-6" style="edgeStyle=orthogonalEdgeStyle;rounded=0;orthogonalLoop=1;jettySize=auto;html=1;exitX=0.75;exitY=1;exitDx=0;exitDy=0;entryX=0.75;entryY=0;entryDx=0;entryDy=0;" edge="1" parent="UXk84HxrRsTx9ExRWkyZ-10" source="UXk84HxrRsTx9ExRWkyZ-3" target="UXk84HxrRsTx9ExRWkyZ-2">
          <mxGeometry relative="1" as="geometry" />
        </mxCell>
        <mxCell id="UXk84HxrRsTx9ExRWkyZ-3" value="&lt;b&gt;cardano-node&lt;/b&gt;" style="rounded=1;whiteSpace=wrap;html=1;fillColor=#f5f5f5;fontColor=#333333;strokeColor=#666666;" vertex="1" parent="UXk84HxrRsTx9ExRWkyZ-10">
          <mxGeometry x="10" y="30" width="120" height="40" as="geometry" />
        </mxCell>
        <mxCell id="UXk84HxrRsTx9ExRWkyZ-15" value="&lt;b&gt;orders&lt;/b&gt;" style="rounded=1;whiteSpace=wrap;html=1;" vertex="1" parent="1">
          <mxGeometry x="200" y="590" width="120" height="40" as="geometry" />
        </mxCell>
        <mxCell id="UXk84HxrRsTx9ExRWkyZ-25" value="Provider-2" style="swimlane;whiteSpace=wrap;html=1;rounded=1;dashed=1;dashPattern=1 1;" vertex="1" parent="1">
          <mxGeometry x="390" y="100" width="140" height="140" as="geometry" />
        </mxCell>
        <mxCell id="UXk84HxrRsTx9ExRWkyZ-26" style="edgeStyle=orthogonalEdgeStyle;rounded=0;orthogonalLoop=1;jettySize=auto;html=1;exitX=0.25;exitY=0;exitDx=0;exitDy=0;entryX=0.25;entryY=1;entryDx=0;entryDy=0;" edge="1" parent="UXk84HxrRsTx9ExRWkyZ-25" source="UXk84HxrRsTx9ExRWkyZ-27" target="UXk84HxrRsTx9ExRWkyZ-29">
          <mxGeometry relative="1" as="geometry" />
        </mxCell>
        <mxCell id="UXk84HxrRsTx9ExRWkyZ-27" value="&lt;b&gt;blockchain-indexer&lt;/b&gt;" style="rounded=1;whiteSpace=wrap;html=1;fillColor=#f5f5f5;fontColor=#333333;strokeColor=#666666;" vertex="1" parent="UXk84HxrRsTx9ExRWkyZ-25">
          <mxGeometry x="10" y="90" width="120" height="40" as="geometry" />
        </mxCell>
        <mxCell id="UXk84HxrRsTx9ExRWkyZ-28" style="edgeStyle=orthogonalEdgeStyle;rounded=0;orthogonalLoop=1;jettySize=auto;html=1;exitX=0.75;exitY=1;exitDx=0;exitDy=0;entryX=0.75;entryY=0;entryDx=0;entryDy=0;dashed=1;dashPattern=1 1;" edge="1" parent="UXk84HxrRsTx9ExRWkyZ-25" source="UXk84HxrRsTx9ExRWkyZ-29" target="UXk84HxrRsTx9ExRWkyZ-27">
          <mxGeometry relative="1" as="geometry" />
        </mxCell>
        <mxCell id="UXk84HxrRsTx9ExRWkyZ-29" value="&lt;b&gt;cardano-node&lt;/b&gt;" style="rounded=1;whiteSpace=wrap;html=1;fillColor=#f5f5f5;fontColor=#333333;strokeColor=#666666;" vertex="1" parent="UXk84HxrRsTx9ExRWkyZ-25">
          <mxGeometry x="10" y="30" width="120" height="40" as="geometry" />
        </mxCell>
        <mxCell id="UXk84HxrRsTx9ExRWkyZ-32" value="" style="rounded=1;whiteSpace=wrap;html=1;" vertex="1" parent="1">
          <mxGeometry x="200" y="380" width="320" height="40" as="geometry" />
        </mxCell>
        <mxCell id="UXk84HxrRsTx9ExRWkyZ-14" value="" style="image;sketch=0;aspect=fixed;html=1;points=[];align=center;fontSize=12;image=img/lib/mscae/Cache_Redis_Product.svg;" vertex="1" parent="1">
          <mxGeometry x="345" y="387.4" width="30" height="25.2" as="geometry" />
        </mxCell>
        <mxCell id="UXk84HxrRsTx9ExRWkyZ-39" value="" style="rounded=1;whiteSpace=wrap;html=1;" vertex="1" parent="1">
          <mxGeometry x="200" y="640" width="320" height="40" as="geometry" />
        </mxCell>
        <mxCell id="UXk84HxrRsTx9ExRWkyZ-41" value="" style="sketch=0;outlineConnect=0;fontColor=#232F3E;gradientColor=none;fillColor=#C925D1;strokeColor=none;dashed=0;verticalLabelPosition=bottom;verticalAlign=top;align=center;html=1;fontSize=12;fontStyle=0;aspect=fixed;pointerEvents=1;shape=mxgraph.aws4.rds_mysql_instance;" vertex="1" parent="1">
          <mxGeometry x="345" y="645" width="30" height="30" as="geometry" />
        </mxCell>
        <mxCell id="UXk84HxrRsTx9ExRWkyZ-42" value="&lt;b&gt;service-gateway-2&lt;/b&gt;" style="rounded=1;whiteSpace=wrap;html=1;fillColor=#f5f5f5;fontColor=#333333;strokeColor=#666666;" vertex="1" parent="1">
          <mxGeometry x="400" y="440" width="120" height="40" as="geometry" />
        </mxCell>
        <mxCell id="UXk84HxrRsTx9ExRWkyZ-43" value="&lt;b style=&quot;color: rgb(51, 51, 51);&quot;&gt;products&lt;/b&gt;" style="rounded=1;whiteSpace=wrap;html=1;" vertex="1" parent="1">
          <mxGeometry x="400" y="490" width="120" height="40" as="geometry" />
        </mxCell>
        <mxCell id="UXk84HxrRsTx9ExRWkyZ-44" value="&lt;b&gt;book&lt;/b&gt;" style="rounded=1;whiteSpace=wrap;html=1;" vertex="1" parent="1">
          <mxGeometry x="400" y="540" width="120" height="40" as="geometry" />
        </mxCell>
        <mxCell id="UXk84HxrRsTx9ExRWkyZ-45" value="&lt;b&gt;orders&lt;/b&gt;" style="rounded=1;whiteSpace=wrap;html=1;" vertex="1" parent="1">
          <mxGeometry x="400" y="590" width="120" height="40" as="geometry" />
        </mxCell>
        <mxCell id="UXk84HxrRsTx9ExRWkyZ-56" style="edgeStyle=orthogonalEdgeStyle;rounded=0;orthogonalLoop=1;jettySize=auto;html=1;exitX=0.5;exitY=0;exitDx=0;exitDy=0;" edge="1" parent="1" source="UXk84HxrRsTx9ExRWkyZ-46">
          <mxGeometry relative="1" as="geometry">
            <mxPoint x="459.9655172413793" y="250" as="targetPoint" />
          </mxGeometry>
        </mxCell>
        <mxCell id="UXk84HxrRsTx9ExRWkyZ-46" value="&lt;b&gt;service-state-2&lt;/b&gt;" style="rounded=1;whiteSpace=wrap;html=1;fillColor=#f5f5f5;fontColor=#333333;strokeColor=#666666;" vertex="1" parent="1">
          <mxGeometry x="400" y="280" width="120" height="40" as="geometry" />
        </mxCell>
        <mxCell id="UXk84HxrRsTx9ExRWkyZ-47" value="&lt;b&gt;orders&lt;/b&gt;" style="rounded=1;whiteSpace=wrap;html=1;" vertex="1" parent="1">
          <mxGeometry x="400" y="330" width="120" height="40" as="geometry" />
        </mxCell>
      </root>
    </mxGraphModel>
  </diagram>
</mxfile>
